<svg xmlns="http://www.w3.org/2000/svg" viewBox="0 0 32 32" width="32" height="32">
  <defs>
    <linearGradient id="shadowGradient" x1="0%" y1="0%" x2="100%" y2="100%">
      <stop offset="0%" style="stop-color:#1a1a1a;stop-opacity:1" />
      <stop offset="100%" style="stop-color:#4a4a4a;stop-opacity:1" />
    </linearGradient>
    <filter id="shadow" x="-50%" y="-50%" width="200%" height="200%">
      <feGaussianBlur in="SourceAlpha" stdDeviation="1"/>
      <feOffset dx="1" dy="1" result="offsetblur"/>
      <feComponentTransfer>
        <feFuncA type="linear" slope="0.3"/>
      </feComponentTransfer>
      <feMerge> 
        <feMergeNode/>
        <feMergeNode in="SourceGraphic"/> 
      </feMerge>
    </filter>
  </defs>
  
  <!-- Background -->
  <rect width="32" height="32" rx="6" fill="url(#shadowGradient)"/>
  
  <!-- S Letter representing Shadownews -->
  <path d="M 8 10 Q 8 6, 12 6 L 20 6 Q 24 6, 24 10 Q 24 13, 20 13 L 12 13 Q 8 13, 8 16 Q 8 19, 12 19 L 20 19 Q 24 19, 24 22 Q 24 26, 20 26 L 12 26 Q 8 26, 8 22" 
        fill="none" 
        stroke="#ffffff" 
        stroke-width="2.5" 
        stroke-linecap="round" 
        filter="url(#shadow)"/>
  
  <!-- Snowball dots representing the snowball effect -->
  <circle cx="26" cy="6" r="2" fill="#ff6b6b" opacity="0.9"/>
  <circle cx="28" cy="10" r="1.5" fill="#4ecdc4" opacity="0.8"/>
  <circle cx="27" cy="13" r="1" fill="#ffe66d" opacity="0.7"/>
</svg>